HIERARCHY
ROOT Hips
{
	OFFSET 0.000000 0.000000 0.000000
	CHANNELS 6 Xposition Yposition Zposition Zrotation Yrotation Xrotation 
	JOINT LHipJoint
	{
		OFFSET 0.000000 0.000000 0.000000
		CHANNELS 3 Zrotation Yrotation Xrotation
		JOINT LeftUpLeg
		{
			OFFSET 1.363060 -1.794630 0.839290
			CHANNELS 3 Zrotation Yrotation Xrotation
			JOINT LeftLeg
			{
				OFFSET 2.448110 -6.726130 0.000000
				CHANNELS 3 Zrotation Yrotation Xrotation
				JOINT LeftFoot
				{
					OFFSET 2.562200 -7.039590 0.000000
					CHANNELS 3 Zrotation Yrotation Xrotation
					JOINT LeftToeBase
					{
						OFFSET 0.157640 -0.433110 2.322550
						CHANNELS 3 Zrotation Yrotation Xrotation
						End Site
						{
							OFFSET 0.000000 0.000000 0.000000
						}
					}
				}
			}
		}
	}
	JOINT RHipJoint
	{
		OFFSET 0.000000 0.000000 0.000000
		CHANNELS 3 Zrotation Yrotation Xrotation
		JOINT RightUpLeg
		{
			OFFSET -1.305520 -1.794630 0.839290
			CHANNELS 3 Zrotation Yrotation Xrotation
			JOINT RightLeg
			{
				OFFSET -2.542530 -6.985550 0.000000
				CHANNELS 3 Zrotation Yrotation Xrotation
				JOINT RightFoot
				{
					OFFSET -2.568260 -7.056230 0.000000
					CHANNELS 3 Zrotation Yrotation Xrotation
					JOINT RightToeBase
					{
						OFFSET -0.164730 -0.452590 2.363150
						CHANNELS 3 Zrotation Yrotation Xrotation
						End Site
						{
							OFFSET 0.000000 0.000000 0.000000
						}
					}
				}
			}
		}
	}
	JOINT LowerBack
	{
		OFFSET 0.000000 0.000000 0.000000
		CHANNELS 3 Zrotation Yrotation Xrotation
		JOINT Spine
		{
			OFFSET 0.028270 2.035590 -0.193380
			CHANNELS 3 Zrotation Yrotation Xrotation
			JOINT Spine1
			{
				OFFSET 0.056720 2.048850 -0.042750
				CHANNELS 3 Zrotation Yrotation Xrotation
				JOINT Neck
				{
					OFFSET 0.000000 0.000000 0.000000
					CHANNELS 3 Zrotation Yrotation Xrotation
					JOINT Neck1
					{
						OFFSET -0.054170 1.746240 0.172020
						CHANNELS 3 Zrotation Yrotation Xrotation
						JOINT Head
						{
							OFFSET 0.104070 1.761360 -0.123970
							CHANNELS 3 Zrotation Yrotation Xrotation
							End Site
							{
								OFFSET 0.000000 0.000000 0.000000
							}
						}
					}
				}
				JOINT LeftShoulder
				{
					OFFSET 0.000000 0.000000 0.000000
					CHANNELS 3 Zrotation Yrotation Xrotation
					JOINT LeftArm
					{
						OFFSET 3.362410 1.200890 -0.311210
						CHANNELS 3 Zrotation Yrotation Xrotation
						JOINT LeftForeArm
						{
							OFFSET 4.983000 -0.000000 -0.000000
							CHANNELS 3 Zrotation Yrotation Xrotation
							JOINT LeftHand
							{
								OFFSET 3.483560 -0.000000 -0.000000
								CHANNELS 3 Zrotation Yrotation Xrotation
								JOINT LeftFingerBase
								{
									OFFSET 0.000000 0.000000 0.000000
									CHANNELS 3 Zrotation Yrotation Xrotation
									JOINT LeftHandIndex1
									{
										OFFSET 0.715260 -0.000000 -0.000000
										CHANNELS 3 Zrotation Yrotation Xrotation
										End Site
										{
											OFFSET 0.000000 0.000000 0.000000
										}
									}
								}
								JOINT LThumb
								{
									OFFSET 0.000000 0.000000 0.000000
									CHANNELS 3 Zrotation Yrotation Xrotation
									End Site
									{
										OFFSET 0.000000 0.000000 0.000000
									}
								}
							}
						}
					}
				}
				JOINT RightShoulder
				{
					OFFSET 0.000000 0.000000 0.000000
					CHANNELS 3 Zrotation Yrotation Xrotation
					JOINT RightArm
					{
						OFFSET -3.136600 1.374050 -0.404650
						CHANNELS 3 Zrotation Yrotation Xrotation
						JOINT RightForeArm
						{
							OFFSET -5.241900 -0.000000 -0.000000
							CHANNELS 3 Zrotation Yrotation Xrotation
							JOINT RightHand
							{
								OFFSET -3.444170 -0.000000 -0.000000
								CHANNELS 3 Zrotation Yrotation Xrotation
								JOINT RightFingerBase
								{
									OFFSET 0.000000 0.000000 0.000000
									CHANNELS 3 Zrotation Yrotation Xrotation
									JOINT RightHandIndex1
									{
										OFFSET -0.622530 -0.000000 -0.000000
										CHANNELS 3 Zrotation Yrotation Xrotation
										End Site
										{
											OFFSET 0.000000 0.000000 0.000000
										}
									}
								}
								JOINT RThumb
								{
									OFFSET 0.000000 0.000000 0.000000
									CHANNELS 3 Zrotation Yrotation Xrotation
									End Site
									{
										OFFSET 0.000000 0.000000 0.000000
									}
								}
							}
						}
					}
				}
			}
		}
	}
}
MOTION
Frames: 6
Frame Time: 0.008333
-37.098894 17.739874 -5.561756 -112.667857 -87.419848 105.507776 10.347549 1.153441 -4.416219 -23.131782 11.142315 12.065045 2.315303 3.973279 13.449425 0.063513 5.235921 7.291551 0.722400 -5.431200 -15.142600 -9.988834 -2.162800 -1.799485 31.389452 -1.955772 2.515104 -4.155564 -9.318102 29.368220 -0.118702 -0.723214 -6.084169 -0.087500 1.908300 -5.252400 2.725177 -1.120809 3.857127 1.540368 -1.254954 0.702896 -2.330790 -0.614911 2.516342 -2.187540 -0.241250 -7.884533 7.361933 -1.002473 6.625381 0.771900 -0.282500 3.502200 -4.123985 -4.920068 1.075003 -81.728044 3.113011 21.833993 14.561241 -24.224997 -3.390443 -0.200375 0.668791 -18.525215 18.657813 11.464521 3.593000 -7.125000 0.000000 0.000000 -7.494100 41.173100 0.711800 5.840706 4.727428 0.843176 81.320533 -2.936793 20.516665 -14.512855 24.922074 -3.338961 0.108304 -0.922387 4.307132 -17.651255 -11.246368 3.285800 7.125000 0.000000 0.000000 8.117600 -40.634300 0.880400 
-37.098992 17.725886 -5.559293 -109.806032 -87.342101 102.530276 10.303745 1.122880 -4.424349 -22.751926 11.192700 12.110748 2.330550 4.022151 13.618564 0.068494 5.100025 7.349631 0.551800 -4.758400 -13.220800 -9.975516 -2.151296 -1.830380 31.303560 -2.292310 2.732716 -4.131263 -9.275685 29.248391 -0.100806 -0.500075 -5.557170 -0.047300 1.403700 -3.860300 2.866210 -1.182206 3.949017 1.542998 -1.333132 0.701823 -2.416713 -0.653135 2.476089 -2.187032 -0.267432 -7.834932 7.383169 -1.041842 6.749602 0.782900 -0.295800 3.545800 -4.124878 -4.921016 1.073603 -81.705579 3.014243 21.560786 14.359155 -23.980131 -3.323850 -0.206424 0.672407 -18.412163 18.712790 11.671002 3.671900 -7.125000 0.000000 0.000000 -7.476100 41.387000 0.670400 5.833456 4.736043 0.838961 81.381566 -2.955475 20.314827 -14.457236 24.810693 -3.268693 -0.007610 -0.854738 4.540830 -17.783196 -7.031854 1.970800 7.125000 0.000000 0.000000 7.472000 -36.335100 1.603000 
-37.102933 17.706973 -5.558801 -108.408464 -87.237805 101.055916 10.274500 1.093140 -4.447606 -22.399004 11.270180 12.184432 2.331991 4.026424 13.649332 0.074357 5.051431 7.477834 0.439000 -4.251400 -11.784900 -9.974254 -2.151397 -1.828199 31.303900 -2.356413 2.719244 -4.119043 -9.252895 29.175419 -0.089730 -0.540450 -5.133265 -0.018000 0.866200 -2.380800 2.979611 -1.207851 3.951963 1.551895 -1.368921 0.721031 -2.448986 -0.671040 2.535148 -2.332188 -0.444278 -8.011858 7.575013 -1.266350 6.942941 0.885400 -0.392000 3.676800 -4.128884 -4.909146 1.064793 -81.714883 2.833537 21.263024 14.111874 -23.674558 -3.237567 -0.197867 0.674795 -18.185600 18.758288 11.466135 3.612400 -7.125000 0.000000 0.000000 -7.405200 41.177900 0.702400 5.825121 4.746503 0.837627 81.412853 -2.925751 20.073252 -14.402014 24.748257 -3.252579 -0.005063 -0.854906 4.680823 -17.708074 -7.136467 1.995900 7.125000 0.000000 0.000000 7.544500 -36.440200 1.599300 
-37.106380 17.705003 -5.558899 -106.464200 -87.263559 99.120521 10.257191 1.085305 -4.447151 -22.268813 11.271099 12.144071 2.335801 4.030396 13.668864 0.086069 5.072882 7.733852 0.368800 -3.900600 -10.797100 -9.973641 -2.139079 -1.844630 31.236462 -2.339827 2.891245 -4.114323 -9.234074 29.132404 -0.081961 -0.237534 -4.972862 -0.004800 0.448800 -1.233200 2.957574 -1.241393 3.868061 1.551561 -1.413897 0.725953 -2.455070 -0.693790 2.600326 -2.257912 -0.473722 -8.090633 7.473309 -1.303665 7.107850 0.828900 -0.403900 3.760500 -4.124643 -4.899792 1.059876 -81.718625 2.690744 21.027411 13.900996 -23.418040 -3.165123 -0.211991 0.671643 -18.115488 18.533333 11.780547 3.671600 -7.125000 0.000000 0.000000 -7.645400 41.484000 0.667400 5.823620 4.750816 0.836816 81.437679 -2.905434 19.852302 -14.306936 24.639662 -3.226495 -0.001159 -0.858919 4.724166 -17.743860 -7.369213 2.073600 7.125000 0.000000 0.000000 7.540600 -36.680000 1.553900 
-37.108942 17.699881 -5.559884 -104.892525 -87.242769 97.539075 10.237091 1.070775 -4.455933 -22.074964 11.282000 12.159475 2.332397 4.018351 13.641639 0.107125 4.833794 8.157468 0.439500 -4.253800 -11.791700 -9.973993 -2.131258 -1.849165 31.218749 -2.298835 2.989345 -4.109472 -9.218469 29.093216 -0.075075 -0.136286 -4.755664 -0.000000 0.034300 -0.094100 2.964460 -1.272762 3.824809 1.554850 -1.456210 0.727401 -2.457771 -0.715532 2.637034 -2.266249 -0.533692 -8.177826 7.476874 -1.379632 7.277328 0.830900 -0.432700 3.853600 -4.122769 -4.891831 1.053851 -81.720864 2.561326 20.766709 13.687946 -23.156257 -3.092859 -0.215375 0.670932 -17.995148 18.437224 11.841653 3.672100 -7.125000 0.000000 0.000000 -7.736800 41.538500 0.665000 5.819347 4.758889 0.834929 81.470179 -2.910855 19.645326 -14.233856 24.550229 -3.200713 -0.012049 -0.852842 4.793369 -17.764448 -7.034518 1.969900 7.125000 0.000000 0.000000 7.488900 -36.338800 1.606000 
-37.111306 17.698502 -5.562347 -103.659746 -87.239238 96.318255 10.222144 1.055713 -4.468996 -21.928910 11.286545 12.214479 2.318263 3.964545 13.488861 0.126390 4.719678 8.580330 0.507300 -4.565900 -12.674300 -9.977741 -2.125816 -1.841341 31.230584 -2.135845 3.039766 -4.117962 -9.226045 29.127355 -0.071225 -0.072516 -4.631963 -0.002600 -0.327500 0.899900 2.928555 -1.296592 3.768639 1.558081 -1.488644 0.723719 -2.437605 -0.732712 2.664731 -2.235285 -0.574854 -8.229738 7.430376 -1.433176 7.417507 0.803900 -0.453000 3.924300 -4.118486 -4.885868 1.048735 -81.722932 2.447930 20.519474 13.482449 -22.903948 -3.023596 -0.217701 0.669877 -17.882907 18.336020 11.865766 3.659400 -7.125000 0.000000 0.000000 -7.827000 41.554900 0.669700 5.817000 4.765560 0.832939 81.503280 -2.935393 19.452167 -14.161646 24.464184 -3.178726 -0.014190 -0.852556 4.826545 -17.789613 -7.019727 1.968000 7.125000 0.000000 0.000000 7.467400 -36.324900 1.603900 
